G04 MADE WITH FRITZING*
G04 WWW.FRITZING.ORG*
G04 DOUBLE SIDED*
G04 HOLES PLATED*
G04 CONTOUR ON CENTER OF CONTOUR VECTOR*
%ASAXBY*%
%FSLAX23Y23*%
%MOIN*%
%OFA0B0*%
%SFA1.0B1.0*%
%ADD10C,0.075000*%
%ADD11C,0.099000*%
%ADD12C,0.050000*%
%ADD13C,0.039370*%
%ADD14R,0.075000X0.075000*%
%ADD15R,0.099000X0.099000*%
%ADD16C,0.024000*%
%ADD17R,0.001000X0.001000*%
%LNCOPPER1*%
G90*
G70*
G54D10*
X802Y578D03*
X802Y878D03*
X902Y578D03*
X902Y878D03*
X1002Y578D03*
X1002Y878D03*
X1102Y578D03*
X1102Y878D03*
X1202Y578D03*
X1202Y878D03*
X1302Y578D03*
X1302Y878D03*
X1402Y578D03*
X1402Y878D03*
X1502Y578D03*
X1502Y878D03*
X1602Y578D03*
X1602Y878D03*
X1702Y578D03*
X1702Y878D03*
X1702Y278D03*
X1302Y278D03*
G54D11*
X802Y278D03*
X802Y478D03*
X1002Y378D03*
G54D12*
X102Y542D03*
X102Y601D03*
X102Y660D03*
X102Y719D03*
X102Y778D03*
X102Y837D03*
X102Y542D03*
X102Y601D03*
X102Y660D03*
X102Y719D03*
X102Y778D03*
X102Y837D03*
G54D10*
X302Y78D03*
X402Y78D03*
X502Y78D03*
X602Y78D03*
X702Y78D03*
X802Y78D03*
X902Y78D03*
X1002Y78D03*
X1102Y78D03*
X1202Y78D03*
X1302Y78D03*
X1402Y78D03*
X1502Y78D03*
X1602Y78D03*
X1702Y78D03*
X1802Y78D03*
G54D13*
X1392Y369D03*
X1800Y1017D03*
X696Y297D03*
X1800Y441D03*
X1704Y777D03*
G54D14*
X802Y578D03*
G54D15*
X802Y478D03*
G54D14*
X302Y78D03*
G54D16*
X817Y577D02*
X831Y576D01*
D02*
X1676Y289D02*
X1673Y290D01*
D02*
X775Y262D02*
X504Y105D01*
D02*
X504Y105D02*
X504Y106D01*
D02*
X981Y858D02*
X720Y609D01*
D02*
X720Y609D02*
X720Y393D01*
D02*
X720Y393D02*
X888Y393D01*
D02*
X888Y393D02*
X888Y225D01*
D02*
X888Y225D02*
X817Y103D01*
D02*
X129Y837D02*
X744Y849D01*
D02*
X744Y849D02*
X744Y945D01*
D02*
X744Y945D02*
X1752Y945D01*
D02*
X1752Y945D02*
X1776Y921D01*
D02*
X1776Y921D02*
X1776Y633D01*
D02*
X1776Y633D02*
X1704Y609D01*
D02*
X1704Y609D02*
X1704Y606D01*
D02*
X1813Y1004D02*
X1824Y993D01*
D02*
X1824Y993D02*
X1824Y585D01*
D02*
X1824Y585D02*
X1776Y585D01*
D02*
X1776Y585D02*
X1752Y513D01*
D02*
X1752Y513D02*
X1224Y513D01*
D02*
X1224Y513D02*
X1224Y249D01*
D02*
X1224Y249D02*
X1382Y98D01*
D02*
X813Y604D02*
X816Y609D01*
D02*
X816Y609D02*
X816Y633D01*
D02*
X816Y633D02*
X1685Y774D01*
D02*
X1305Y306D02*
X1320Y441D01*
D02*
X1320Y441D02*
X1781Y441D01*
D02*
X1585Y101D02*
X1403Y354D01*
D02*
X323Y98D02*
X528Y297D01*
D02*
X528Y297D02*
X677Y297D01*
D02*
X796Y850D02*
X768Y729D01*
D02*
X768Y729D02*
X696Y729D01*
D02*
X696Y729D02*
X672Y657D01*
D02*
X672Y657D02*
X672Y345D01*
D02*
X672Y345D02*
X687Y314D01*
D02*
X129Y776D02*
X696Y729D01*
D02*
X1806Y106D02*
X1872Y537D01*
D02*
X1872Y537D02*
X1872Y1065D01*
D02*
X1872Y1065D02*
X1752Y1065D01*
D02*
X1752Y1065D02*
X696Y993D01*
D02*
X696Y993D02*
X72Y885D01*
D02*
X72Y885D02*
X48Y873D01*
D02*
X48Y873D02*
X48Y801D01*
D02*
X48Y801D02*
X78Y788D01*
G54D17*
X77Y567D02*
X126Y567D01*
X77Y566D02*
X126Y566D01*
X77Y565D02*
X126Y565D01*
X77Y564D02*
X126Y564D01*
X77Y563D02*
X126Y563D01*
X77Y562D02*
X126Y562D01*
X77Y561D02*
X126Y561D01*
X77Y560D02*
X126Y560D01*
X77Y559D02*
X126Y559D01*
X77Y558D02*
X97Y558D01*
X106Y558D02*
X126Y558D01*
X77Y557D02*
X95Y557D01*
X109Y557D02*
X126Y557D01*
X77Y556D02*
X93Y556D01*
X111Y556D02*
X126Y556D01*
X77Y555D02*
X91Y555D01*
X112Y555D02*
X126Y555D01*
X77Y554D02*
X90Y554D01*
X113Y554D02*
X126Y554D01*
X77Y553D02*
X89Y553D01*
X114Y553D02*
X126Y553D01*
X77Y552D02*
X88Y552D01*
X115Y552D02*
X126Y552D01*
X77Y551D02*
X88Y551D01*
X116Y551D02*
X126Y551D01*
X77Y550D02*
X87Y550D01*
X116Y550D02*
X126Y550D01*
X77Y549D02*
X87Y549D01*
X117Y549D02*
X126Y549D01*
X77Y548D02*
X86Y548D01*
X117Y548D02*
X126Y548D01*
X77Y547D02*
X86Y547D01*
X117Y547D02*
X126Y547D01*
X77Y546D02*
X86Y546D01*
X118Y546D02*
X126Y546D01*
X77Y545D02*
X86Y545D01*
X118Y545D02*
X126Y545D01*
X77Y544D02*
X86Y544D01*
X118Y544D02*
X126Y544D01*
X77Y543D02*
X85Y543D01*
X118Y543D02*
X126Y543D01*
X77Y542D02*
X85Y542D01*
X118Y542D02*
X126Y542D01*
X77Y541D02*
X86Y541D01*
X118Y541D02*
X126Y541D01*
X77Y540D02*
X86Y540D01*
X118Y540D02*
X126Y540D01*
X77Y539D02*
X86Y539D01*
X117Y539D02*
X126Y539D01*
X77Y538D02*
X86Y538D01*
X117Y538D02*
X126Y538D01*
X77Y537D02*
X87Y537D01*
X117Y537D02*
X126Y537D01*
X77Y536D02*
X87Y536D01*
X116Y536D02*
X126Y536D01*
X77Y535D02*
X88Y535D01*
X116Y535D02*
X126Y535D01*
X77Y534D02*
X88Y534D01*
X115Y534D02*
X126Y534D01*
X77Y533D02*
X89Y533D01*
X114Y533D02*
X126Y533D01*
X77Y532D02*
X90Y532D01*
X114Y532D02*
X126Y532D01*
X77Y531D02*
X91Y531D01*
X112Y531D02*
X126Y531D01*
X77Y530D02*
X92Y530D01*
X111Y530D02*
X126Y530D01*
X77Y529D02*
X94Y529D01*
X110Y529D02*
X126Y529D01*
X77Y528D02*
X96Y528D01*
X107Y528D02*
X126Y528D01*
X77Y527D02*
X126Y527D01*
X77Y526D02*
X126Y526D01*
X77Y525D02*
X126Y525D01*
X77Y524D02*
X126Y524D01*
X77Y523D02*
X126Y523D01*
X77Y522D02*
X126Y522D01*
X77Y521D02*
X126Y521D01*
X77Y520D02*
X126Y520D01*
X77Y519D02*
X126Y519D01*
X77Y518D02*
X126Y518D01*
D02*
G04 End of Copper1*
M02*