G04 MADE WITH FRITZING*
G04 WWW.FRITZING.ORG*
G04 DOUBLE SIDED*
G04 HOLES PLATED*
G04 CONTOUR ON CENTER OF CONTOUR VECTOR*
%ASAXBY*%
%FSLAX23Y23*%
%MOIN*%
%OFA0B0*%
%SFA1.0B1.0*%
%ADD10C,0.085000*%
%ADD11C,0.109000*%
%ADD12C,0.096614*%
%ADD13C,0.060000*%
%ADD14C,0.049370*%
%ADD15R,0.085000X0.085000*%
%ADD16R,0.109000X0.109000*%
%ADD17R,0.001000X0.001000*%
%LNMASK1*%
G90*
G70*
G54D10*
X802Y578D03*
X802Y878D03*
X902Y578D03*
X902Y878D03*
X1002Y578D03*
X1002Y878D03*
X1102Y578D03*
X1102Y878D03*
X1202Y578D03*
X1202Y878D03*
X1302Y578D03*
X1302Y878D03*
X1402Y578D03*
X1402Y878D03*
X1502Y578D03*
X1502Y878D03*
X1602Y578D03*
X1602Y878D03*
X1702Y578D03*
X1702Y878D03*
X1702Y278D03*
X1302Y278D03*
G54D11*
X802Y278D03*
X802Y478D03*
X1002Y378D03*
G54D12*
X102Y1178D03*
X1802Y1178D03*
X102Y278D03*
G54D13*
X102Y542D03*
X102Y601D03*
X102Y660D03*
X102Y719D03*
X102Y778D03*
X102Y837D03*
X102Y542D03*
X102Y601D03*
X102Y660D03*
X102Y719D03*
X102Y778D03*
X102Y837D03*
G54D10*
X302Y78D03*
X402Y78D03*
X502Y78D03*
X602Y78D03*
X702Y78D03*
X802Y78D03*
X902Y78D03*
X1002Y78D03*
X1102Y78D03*
X1202Y78D03*
X1302Y78D03*
X1402Y78D03*
X1502Y78D03*
X1602Y78D03*
X1702Y78D03*
X1802Y78D03*
G54D14*
X1392Y369D03*
X1800Y1017D03*
X696Y297D03*
X1800Y441D03*
X1704Y777D03*
G54D15*
X802Y578D03*
G54D16*
X802Y478D03*
G54D15*
X302Y78D03*
G54D17*
X72Y572D02*
X131Y572D01*
X72Y571D02*
X131Y571D01*
X72Y570D02*
X131Y570D01*
X72Y569D02*
X131Y569D01*
X72Y568D02*
X131Y568D01*
X72Y567D02*
X131Y567D01*
X72Y566D02*
X131Y566D01*
X72Y565D02*
X131Y565D01*
X72Y564D02*
X131Y564D01*
X72Y563D02*
X131Y563D01*
X72Y562D02*
X131Y562D01*
X72Y561D02*
X131Y561D01*
X72Y560D02*
X131Y560D01*
X72Y559D02*
X131Y559D01*
X72Y558D02*
X131Y558D01*
X72Y557D02*
X131Y557D01*
X72Y556D02*
X131Y556D01*
X72Y555D02*
X131Y555D01*
X72Y554D02*
X131Y554D01*
X72Y553D02*
X98Y553D01*
X106Y553D02*
X131Y553D01*
X72Y552D02*
X95Y552D01*
X108Y552D02*
X131Y552D01*
X72Y551D02*
X94Y551D01*
X110Y551D02*
X131Y551D01*
X72Y550D02*
X93Y550D01*
X111Y550D02*
X131Y550D01*
X72Y549D02*
X92Y549D01*
X111Y549D02*
X131Y549D01*
X72Y548D02*
X92Y548D01*
X112Y548D02*
X131Y548D01*
X72Y547D02*
X91Y547D01*
X112Y547D02*
X131Y547D01*
X72Y546D02*
X91Y546D01*
X112Y546D02*
X131Y546D01*
X72Y545D02*
X91Y545D01*
X113Y545D02*
X131Y545D01*
X72Y544D02*
X91Y544D01*
X113Y544D02*
X131Y544D01*
X72Y543D02*
X90Y543D01*
X113Y543D02*
X131Y543D01*
X72Y542D02*
X90Y542D01*
X113Y542D02*
X131Y542D01*
X72Y541D02*
X91Y541D01*
X113Y541D02*
X131Y541D01*
X72Y540D02*
X91Y540D01*
X113Y540D02*
X131Y540D01*
X72Y539D02*
X91Y539D01*
X112Y539D02*
X131Y539D01*
X72Y538D02*
X91Y538D01*
X112Y538D02*
X131Y538D01*
X72Y537D02*
X92Y537D01*
X112Y537D02*
X131Y537D01*
X72Y536D02*
X92Y536D01*
X111Y536D02*
X131Y536D01*
X72Y535D02*
X93Y535D01*
X110Y535D02*
X131Y535D01*
X72Y534D02*
X94Y534D01*
X109Y534D02*
X131Y534D01*
X72Y533D02*
X96Y533D01*
X107Y533D02*
X131Y533D01*
X72Y532D02*
X131Y532D01*
X72Y531D02*
X131Y531D01*
X72Y530D02*
X131Y530D01*
X72Y529D02*
X131Y529D01*
X72Y528D02*
X131Y528D01*
X72Y527D02*
X131Y527D01*
X72Y526D02*
X131Y526D01*
X72Y525D02*
X131Y525D01*
X72Y524D02*
X131Y524D01*
X72Y523D02*
X131Y523D01*
X72Y522D02*
X131Y522D01*
X72Y521D02*
X131Y521D01*
X72Y520D02*
X131Y520D01*
X72Y519D02*
X131Y519D01*
X72Y518D02*
X131Y518D01*
X72Y517D02*
X131Y517D01*
X72Y516D02*
X131Y516D01*
X72Y515D02*
X131Y515D01*
X72Y514D02*
X131Y514D01*
X72Y513D02*
X131Y513D01*
D02*
G04 End of Mask1*
M02*