; NON-PLATED HOLES START AT T1
; THROUGH (PLATED) HOLES START AT T100
M48
INCH
T1C0.086614
T100C0.015748
T101C0.031496
T102C0.035000
T103C0.041000
%
T1
X001021Y011777
X018021Y011777
X001021Y002777
T100
X017997Y010174
X013917Y003694
X017037Y007774
X006957Y002974
X017997Y004414
T101
X001021Y006006
X001021Y006596
X001017Y008368
X001021Y005415
X001021Y007777
X001021Y007187
T102
X009021Y005777
X013021Y002777
X017021Y002777
X011021Y000777
X018021Y000777
X016021Y000777
X014021Y000777
X012021Y000777
X010021Y000777
X011021Y005777
X008021Y008777
X017021Y000777
X015021Y000777
X013021Y000777
X016021Y005777
X014021Y005777
X012021Y005777
X010021Y005777
X009021Y008777
X017021Y005777
X015021Y005777
X013021Y005777
X011021Y008777
X016021Y008777
X014021Y008777
X012021Y008777
X010021Y008777
X017021Y008777
X015021Y008777
X013021Y008777
X008021Y000777
X006021Y000777
X004021Y000777
X009021Y000777
X007021Y000777
X005021Y000777
X003021Y000777
X008021Y005777
T103
X008021Y002777
X010021Y003777
X008021Y004777
T00
M30
