G04 MADE WITH FRITZING*
G04 WWW.FRITZING.ORG*
G04 DOUBLE SIDED*
G04 HOLES PLATED*
G04 CONTOUR ON CENTER OF CONTOUR VECTOR*
%ASAXBY*%
%FSLAX23Y23*%
%MOIN*%
%OFA0B0*%
%SFA1.0B1.0*%
%ADD10C,0.075000*%
%ADD11C,0.111000*%
%ADD12C,0.086000*%
%ADD13C,0.039370*%
%ADD14R,0.075000X0.075000*%
%ADD15R,0.118110X0.035433*%
%ADD16C,0.024000*%
%LNCOPPER1*%
G90*
G70*
G54D10*
X198Y1096D03*
X498Y1096D03*
X198Y996D03*
X498Y996D03*
X198Y896D03*
X498Y896D03*
X198Y796D03*
X498Y796D03*
X198Y696D03*
X498Y696D03*
X198Y596D03*
X498Y596D03*
X198Y496D03*
X498Y496D03*
X198Y396D03*
X498Y396D03*
X198Y296D03*
X498Y296D03*
X198Y196D03*
X498Y196D03*
G54D11*
X403Y1269D03*
X403Y1786D03*
X403Y1269D03*
X403Y1786D03*
G54D12*
X1298Y1796D03*
X1495Y1894D03*
X1495Y1993D03*
X1495Y1697D03*
X1495Y1599D03*
X1298Y1796D03*
X1495Y1894D03*
X1495Y1993D03*
X1495Y1697D03*
X1495Y1599D03*
X1298Y1296D03*
X1495Y1394D03*
X1495Y1493D03*
X1495Y1197D03*
X1495Y1099D03*
X1298Y1296D03*
X1495Y1394D03*
X1495Y1493D03*
X1495Y1197D03*
X1495Y1099D03*
X1298Y796D03*
X1495Y894D03*
X1495Y993D03*
X1495Y697D03*
X1495Y599D03*
X1298Y796D03*
X1495Y894D03*
X1495Y993D03*
X1495Y697D03*
X1495Y599D03*
X1298Y296D03*
X1495Y394D03*
X1495Y493D03*
X1495Y197D03*
X1495Y99D03*
X1298Y296D03*
X1495Y394D03*
X1495Y493D03*
X1495Y197D03*
X1495Y99D03*
G54D10*
X698Y1596D03*
X1098Y1596D03*
X698Y1096D03*
X1098Y1096D03*
X698Y596D03*
X1098Y596D03*
X698Y96D03*
X1098Y96D03*
G54D13*
X1092Y1393D03*
X660Y1273D03*
G54D14*
X198Y1096D03*
G54D15*
X569Y1567D03*
X569Y1665D03*
X569Y1488D03*
X569Y1390D03*
G54D16*
X493Y718D02*
X492Y724D01*
D02*
X524Y509D02*
X673Y583D01*
D02*
X519Y315D02*
X756Y529D01*
X756Y529D02*
X756Y1321D01*
X756Y1321D02*
X612Y1465D01*
X612Y1465D02*
X592Y1476D01*
D02*
X566Y1377D02*
X505Y1124D01*
D02*
X648Y1288D02*
X579Y1377D01*
D02*
X1327Y818D02*
X1356Y841D01*
X1356Y841D02*
X1356Y1129D01*
X1356Y1129D02*
X1310Y1261D01*
D02*
X1328Y317D02*
X1356Y337D01*
X1356Y337D02*
X1356Y649D01*
X1356Y649D02*
X1312Y762D01*
D02*
X703Y1568D02*
X708Y1537D01*
X708Y1537D02*
X1356Y1537D01*
X1356Y1537D02*
X1461Y1584D01*
D02*
X475Y679D02*
X468Y673D01*
X468Y673D02*
X420Y649D01*
X420Y649D02*
X432Y169D01*
X432Y169D02*
X468Y133D01*
X468Y133D02*
X780Y169D01*
X780Y169D02*
X804Y457D01*
X804Y457D02*
X804Y1369D01*
X804Y1369D02*
X710Y1570D01*
D02*
X220Y215D02*
X276Y265D01*
X276Y265D02*
X276Y1297D01*
X276Y1297D02*
X468Y1537D01*
X468Y1537D02*
X527Y1555D01*
D02*
X1092Y1374D02*
X1098Y1124D01*
D02*
X1459Y1484D02*
X1110Y1398D01*
D02*
X1098Y124D02*
X1098Y567D01*
D02*
X1530Y1982D02*
X1572Y1969D01*
X1572Y1969D02*
X1572Y1561D01*
X1572Y1561D02*
X1522Y1517D01*
D02*
X623Y1662D02*
X1068Y1633D01*
X1068Y1633D02*
X1080Y1618D01*
G04 End of Copper1*
M02*