; NON-PLATED HOLES START AT T1
; THROUGH (PLATED) HOLES START AT T100
M48
INCH
T1C0.086614
T2C0.047244
T100C0.015748
T101C0.035000
T102C0.091000
T103C0.051181
%
T1
X000981Y000957
X000981Y018957
T2
X011997Y005988
X014950Y007957
X012981Y014925
X011997Y014925
X012981Y004925
X011997Y004925
X012981Y019925
X012981Y010988
X011997Y019925
X012981Y009925
X011997Y010988
X012981Y000988
X014950Y012957
X011997Y009925
X011997Y000988
X014950Y002957
X012981Y015988
X011997Y015988
X012981Y005988
X014950Y017957
T100
X010920Y013931
X006600Y012731
T101
X010981Y005957
X001981Y007957
X004981Y008957
X001981Y004957
X004981Y005957
X001981Y001957
X004981Y002957
X006981Y010957
X001981Y009957
X006981Y000957
X001981Y006957
X004981Y007957
X006981Y015957
X001981Y010957
X001981Y003957
X004981Y004957
X006981Y005957
X004981Y001957
X001981Y008957
X004981Y009957
X010981Y010957
X001981Y005957
X004981Y006957
X004981Y010957
X010981Y000957
X001981Y002957
X004981Y003957
X010981Y015957
T102
X004031Y017858
X004031Y012688
T103
X014950Y018941
X014950Y001972
X014950Y015988
X014950Y008941
X014950Y005988
X014950Y016973
X014950Y006973
X012981Y012957
X014950Y014925
X012981Y002957
X014950Y004925
X012981Y017957
X014950Y019925
X012981Y007957
X014950Y013941
X014950Y010988
X014950Y009925
X014950Y003941
X014950Y000988
X014950Y011973
T00
M30
