G04 MADE WITH FRITZING*
G04 WWW.FRITZING.ORG*
G04 DOUBLE SIDED*
G04 HOLES PLATED*
G04 CONTOUR ON CENTER OF CONTOUR VECTOR*
%ASAXBY*%
%FSLAX23Y23*%
%MOIN*%
%OFA0B0*%
%SFA1.0B1.0*%
%ADD10C,0.075000*%
%ADD11C,0.111000*%
%ADD12C,0.086000*%
%ADD13C,0.039370*%
%ADD14R,0.075000X0.075000*%
%ADD15C,0.024000*%
%LNCOPPER0*%
G90*
G70*
G54D10*
X198Y1096D03*
X498Y1096D03*
X198Y996D03*
X498Y996D03*
X198Y896D03*
X498Y896D03*
X198Y796D03*
X498Y796D03*
X198Y696D03*
X498Y696D03*
X198Y596D03*
X498Y596D03*
X198Y496D03*
X498Y496D03*
X198Y396D03*
X498Y396D03*
X198Y296D03*
X498Y296D03*
X198Y196D03*
X498Y196D03*
G54D11*
X403Y1269D03*
X403Y1786D03*
G54D12*
X1298Y1796D03*
X1495Y1894D03*
X1495Y1993D03*
X1495Y1697D03*
X1495Y1599D03*
X1298Y1296D03*
X1495Y1394D03*
X1495Y1493D03*
X1495Y1197D03*
X1495Y1099D03*
X1298Y796D03*
X1495Y894D03*
X1495Y993D03*
X1495Y697D03*
X1495Y599D03*
X1298Y296D03*
X1495Y394D03*
X1495Y493D03*
X1495Y197D03*
X1495Y99D03*
G54D10*
X698Y1596D03*
X1098Y1596D03*
X698Y1096D03*
X1098Y1096D03*
X698Y596D03*
X1098Y596D03*
X698Y96D03*
X1098Y96D03*
G54D13*
X660Y1273D03*
X1092Y1393D03*
G54D14*
X198Y1096D03*
G54D15*
X1463Y616D02*
X1356Y673D01*
X1356Y673D02*
X708Y625D01*
X708Y625D02*
X707Y623D01*
D02*
X215Y473D02*
X468Y133D01*
X468Y133D02*
X670Y100D01*
D02*
X1462Y115D02*
X1356Y169D01*
X1356Y169D02*
X1044Y169D01*
X1044Y169D02*
X726Y102D01*
D02*
X519Y615D02*
X684Y769D01*
X684Y769D02*
X697Y1067D01*
D02*
X1461Y1112D02*
X1356Y1153D01*
X1356Y1153D02*
X708Y1153D01*
X708Y1153D02*
X703Y1124D01*
D02*
X1261Y1294D02*
X679Y1274D01*
D02*
X1328Y1774D02*
X1356Y1753D01*
X1356Y1753D02*
X1356Y1441D01*
X1356Y1441D02*
X1312Y1330D01*
D02*
X1461Y979D02*
X1356Y937D01*
X1356Y937D02*
X1164Y937D01*
X1164Y937D02*
X1109Y1069D01*
D02*
X1524Y515D02*
X1572Y553D01*
X1572Y553D02*
X1572Y961D01*
X1572Y961D02*
X1529Y979D01*
D02*
X1109Y569D02*
X1116Y553D01*
X1116Y553D02*
X1476Y529D01*
X1476Y529D02*
X1478Y525D01*
D02*
X1097Y1567D02*
X1093Y1412D01*
D02*
X202Y1124D02*
X228Y1345D01*
X228Y1345D02*
X1071Y1588D01*
G04 End of Copper0*
M02*