; NON-PLATED HOLES START AT T1
; THROUGH (PLATED) HOLES START AT T100
M48
INCH
T1C0.086614
T2C0.047244
T100C0.051181
T101C0.015748
T102C0.035000
T103C0.091000
%
T1
X000981Y000957
X000981Y018957
T2
X012587Y012957
X015540Y014925
X014556Y014925
X012587Y002957
X015540Y004925
X014556Y004925
X012587Y017957
X015540Y019925
X015540Y010988
X014556Y019925
X012587Y007957
X015540Y009925
X014556Y010988
X015540Y000988
X014556Y009925
X014556Y000988
X015540Y015988
X014556Y015988
X015540Y005988
X014556Y005988
T100
X012587Y014925
X012587Y004925
X012587Y019925
X012587Y013941
X012587Y010988
X012587Y009925
X012587Y003941
X012587Y000988
X012587Y011973
X014556Y012957
X012587Y018941
X012587Y001972
X014556Y002957
X012587Y015988
X012587Y008941
X012587Y005988
X012587Y016973
X014556Y017957
X012587Y006973
X014556Y007957
T101
X003959Y001691
X004679Y015611
X006359Y013211
X011160Y003371
T102
X001981Y004957
X001981Y001957
X004981Y009957
X010981Y010957
X004981Y006957
X001981Y009957
X004981Y010957
X010981Y000957
X004981Y003957
X001981Y006957
X010981Y015957
X001981Y010957
X001981Y003957
X010981Y005957
X004981Y008957
X004981Y005957
X001981Y008957
X004981Y002957
X006981Y010957
X001981Y005957
X001981Y002957
X006981Y000957
X004981Y007957
X006981Y015957
X004981Y004957
X001981Y007957
X006981Y005957
X004981Y001957
T103
X004031Y017858
X004031Y012688
T00
M30
