G04 MADE WITH FRITZING*
G04 WWW.FRITZING.ORG*
G04 DOUBLE SIDED*
G04 HOLES PLATED*
G04 CONTOUR ON CENTER OF CONTOUR VECTOR*
%ASAXBY*%
%FSLAX23Y23*%
%MOIN*%
%OFA0B0*%
%SFA1.0B1.0*%
%ADD10C,0.039370*%
%ADD11C,0.075000*%
%ADD12C,0.111000*%
%ADD13C,0.086000*%
%ADD14R,0.075000X0.075000*%
%ADD15R,0.118110X0.035433*%
%ADD16C,0.024000*%
%LNCOPPER1*%
G90*
G70*
G54D10*
X468Y1561D03*
X636Y1321D03*
X1116Y337D03*
X396Y169D03*
G54D11*
X198Y1096D03*
X498Y1096D03*
X198Y996D03*
X498Y996D03*
X198Y896D03*
X498Y896D03*
X198Y796D03*
X498Y796D03*
X198Y696D03*
X498Y696D03*
X198Y596D03*
X498Y596D03*
X198Y496D03*
X498Y496D03*
X198Y396D03*
X498Y396D03*
X198Y296D03*
X498Y296D03*
X198Y196D03*
X498Y196D03*
G54D12*
X403Y1269D03*
X403Y1786D03*
X403Y1269D03*
X403Y1786D03*
G54D13*
X1456Y1796D03*
X1259Y1697D03*
X1259Y1599D03*
X1259Y1894D03*
X1259Y1993D03*
X1456Y1796D03*
X1259Y1697D03*
X1259Y1599D03*
X1259Y1894D03*
X1259Y1993D03*
X1456Y1296D03*
X1259Y1197D03*
X1259Y1099D03*
X1259Y1394D03*
X1259Y1493D03*
X1456Y1296D03*
X1259Y1197D03*
X1259Y1099D03*
X1259Y1394D03*
X1259Y1493D03*
X1456Y796D03*
X1259Y697D03*
X1259Y599D03*
X1259Y894D03*
X1259Y993D03*
X1456Y796D03*
X1259Y697D03*
X1259Y599D03*
X1259Y894D03*
X1259Y993D03*
X1456Y296D03*
X1259Y197D03*
X1259Y99D03*
X1259Y394D03*
X1259Y493D03*
X1456Y296D03*
X1259Y197D03*
X1259Y99D03*
X1259Y394D03*
X1259Y493D03*
G54D11*
X698Y1596D03*
X1098Y1596D03*
X698Y1096D03*
X1098Y1096D03*
X698Y596D03*
X1098Y596D03*
X698Y96D03*
X1098Y96D03*
G54D14*
X198Y1096D03*
G54D15*
X569Y1567D03*
X569Y1665D03*
X569Y1488D03*
X569Y1390D03*
G54D16*
X184Y1092D02*
X198Y1096D01*
D02*
X519Y621D02*
X498Y596D01*
D02*
X200Y497D02*
X198Y496D01*
D02*
X507Y497D02*
X498Y496D01*
D02*
X200Y1096D02*
X198Y1096D01*
D02*
X564Y337D02*
X564Y1345D01*
D02*
X522Y311D02*
X564Y337D01*
D02*
X200Y465D02*
X198Y496D01*
D02*
X1229Y1078D02*
X1116Y997D01*
D02*
X468Y1441D02*
X543Y1476D01*
D02*
X468Y1345D02*
X468Y1441D01*
D02*
X564Y1345D02*
X468Y1345D01*
D02*
X1231Y1574D02*
X719Y1115D01*
D02*
X708Y625D02*
X707Y623D01*
D02*
X780Y661D02*
X708Y625D01*
D02*
X1116Y997D02*
X780Y661D01*
D02*
X636Y1177D02*
X612Y1369D01*
D02*
X636Y1302D02*
X636Y1177D01*
D02*
X487Y1562D02*
X516Y1564D01*
D02*
X612Y1369D02*
X595Y1377D01*
D02*
X1404Y2017D02*
X1332Y841D01*
D02*
X1404Y1345D02*
X1404Y2017D01*
D02*
X1429Y1321D02*
X1404Y1345D01*
D02*
X1332Y49D02*
X1188Y25D01*
D02*
X1332Y841D02*
X1332Y49D01*
D02*
X1188Y745D02*
X756Y529D01*
D02*
X1188Y25D02*
X1188Y745D01*
D02*
X636Y529D02*
X636Y1177D01*
D02*
X756Y529D02*
X636Y529D01*
D02*
X1227Y1474D02*
X1212Y1465D01*
D02*
X1421Y808D02*
X1332Y841D01*
D02*
X1404Y1825D02*
X1404Y2017D01*
D02*
X1424Y1814D02*
X1404Y1825D01*
D02*
X1439Y263D02*
X1332Y49D01*
D02*
X1212Y1465D02*
X1107Y1123D01*
D02*
X1115Y356D02*
X1100Y567D01*
D02*
X623Y1662D02*
X1068Y1633D01*
X1068Y1633D02*
X1080Y1618D01*
D02*
X200Y497D02*
X222Y512D01*
D02*
X348Y481D02*
X200Y497D01*
D02*
X393Y188D02*
X348Y481D01*
D02*
X660Y1609D02*
X420Y1609D01*
D02*
X671Y1605D02*
X660Y1609D01*
D02*
X324Y1369D02*
X348Y481D01*
D02*
X420Y1609D02*
X324Y1369D01*
D02*
X493Y718D02*
X498Y696D01*
D02*
X1296Y1994D02*
X1259Y1993D01*
D02*
X1252Y105D02*
X1231Y122D01*
G04 End of Copper1*
M02*