G04 MADE WITH FRITZING*
G04 WWW.FRITZING.ORG*
G04 DOUBLE SIDED*
G04 HOLES PLATED*
G04 CONTOUR ON CENTER OF CONTOUR VECTOR*
%ASAXBY*%
%FSLAX23Y23*%
%MOIN*%
%OFA0B0*%
%SFA1.0B1.0*%
%ADD10C,0.085000*%
%ADD11C,0.121000*%
%ADD12C,0.096000*%
%ADD13C,0.057244*%
%ADD14C,0.096614*%
%ADD15C,0.049370*%
%ADD16R,0.085000X0.085000*%
%LNMASK0*%
G90*
G70*
G54D10*
X198Y1096D03*
X498Y1096D03*
X198Y996D03*
X498Y996D03*
X198Y896D03*
X498Y896D03*
X198Y796D03*
X498Y796D03*
X198Y696D03*
X498Y696D03*
X198Y596D03*
X498Y596D03*
X198Y496D03*
X498Y496D03*
X198Y396D03*
X498Y396D03*
X198Y296D03*
X498Y296D03*
X198Y196D03*
X498Y196D03*
G54D11*
X403Y1269D03*
X403Y1786D03*
G54D12*
X1298Y1796D03*
X1495Y1894D03*
X1495Y1993D03*
X1495Y1697D03*
X1495Y1599D03*
G54D13*
X1298Y1993D03*
X1200Y1993D03*
X1200Y1599D03*
X1298Y1599D03*
X1495Y1796D03*
G54D12*
X1298Y1296D03*
X1495Y1394D03*
X1495Y1493D03*
X1495Y1197D03*
X1495Y1099D03*
G54D13*
X1298Y1493D03*
X1200Y1493D03*
X1200Y1099D03*
X1298Y1099D03*
X1495Y1296D03*
G54D12*
X1298Y796D03*
X1495Y894D03*
X1495Y993D03*
X1495Y697D03*
X1495Y599D03*
G54D13*
X1298Y993D03*
X1200Y993D03*
X1200Y599D03*
X1298Y599D03*
X1495Y796D03*
G54D12*
X1298Y296D03*
X1495Y394D03*
X1495Y493D03*
X1495Y197D03*
X1495Y99D03*
G54D13*
X1298Y493D03*
X1200Y493D03*
X1200Y99D03*
X1298Y99D03*
X1495Y296D03*
G54D10*
X698Y1596D03*
X1098Y1596D03*
X698Y1096D03*
X1098Y1096D03*
X698Y596D03*
X1098Y596D03*
X698Y96D03*
X1098Y96D03*
G54D14*
X98Y1896D03*
X98Y96D03*
G54D15*
X660Y1273D03*
X1092Y1393D03*
G54D16*
X198Y1096D03*
G04 End of Mask0*
M02*