G04 MADE WITH FRITZING*
G04 WWW.FRITZING.ORG*
G04 DOUBLE SIDED*
G04 HOLES PLATED*
G04 CONTOUR ON CENTER OF CONTOUR VECTOR*
%ASAXBY*%
%FSLAX23Y23*%
%MOIN*%
%OFA0B0*%
%SFA1.0B1.0*%
%ADD10C,0.049370*%
%ADD11C,0.085000*%
%ADD12C,0.121000*%
%ADD13C,0.096000*%
%ADD14C,0.057244*%
%ADD15C,0.096614*%
%ADD16R,0.085000X0.085000*%
%ADD17R,0.128110X0.045433*%
%LNMASK1*%
G90*
G70*
G54D10*
X468Y1561D03*
X636Y1321D03*
X1116Y337D03*
X396Y169D03*
G54D11*
X198Y1096D03*
X498Y1096D03*
X198Y996D03*
X498Y996D03*
X198Y896D03*
X498Y896D03*
X198Y796D03*
X498Y796D03*
X198Y696D03*
X498Y696D03*
X198Y596D03*
X498Y596D03*
X198Y496D03*
X498Y496D03*
X198Y396D03*
X498Y396D03*
X198Y296D03*
X498Y296D03*
X198Y196D03*
X498Y196D03*
G54D12*
X403Y1269D03*
X403Y1786D03*
X403Y1269D03*
X403Y1786D03*
G54D13*
X1456Y1796D03*
X1259Y1697D03*
X1259Y1599D03*
X1259Y1894D03*
X1259Y1993D03*
G54D14*
X1456Y1599D03*
X1554Y1599D03*
X1554Y1993D03*
X1456Y1993D03*
X1259Y1796D03*
G54D13*
X1456Y1796D03*
X1259Y1697D03*
X1259Y1599D03*
X1259Y1894D03*
X1259Y1993D03*
G54D14*
X1456Y1599D03*
X1554Y1599D03*
X1554Y1993D03*
X1456Y1993D03*
X1259Y1796D03*
G54D13*
X1456Y1296D03*
X1259Y1197D03*
X1259Y1099D03*
X1259Y1394D03*
X1259Y1493D03*
G54D14*
X1456Y1099D03*
X1554Y1099D03*
X1554Y1493D03*
X1456Y1493D03*
X1259Y1296D03*
G54D13*
X1456Y1296D03*
X1259Y1197D03*
X1259Y1099D03*
X1259Y1394D03*
X1259Y1493D03*
G54D14*
X1456Y1099D03*
X1554Y1099D03*
X1554Y1493D03*
X1456Y1493D03*
X1259Y1296D03*
G54D13*
X1456Y796D03*
X1259Y697D03*
X1259Y599D03*
X1259Y894D03*
X1259Y993D03*
G54D14*
X1456Y599D03*
X1554Y599D03*
X1554Y993D03*
X1456Y993D03*
X1259Y796D03*
G54D13*
X1456Y796D03*
X1259Y697D03*
X1259Y599D03*
X1259Y894D03*
X1259Y993D03*
G54D14*
X1456Y599D03*
X1554Y599D03*
X1554Y993D03*
X1456Y993D03*
X1259Y796D03*
G54D13*
X1456Y296D03*
X1259Y197D03*
X1259Y99D03*
X1259Y394D03*
X1259Y493D03*
G54D14*
X1456Y99D03*
X1554Y99D03*
X1554Y493D03*
X1456Y493D03*
X1259Y296D03*
G54D13*
X1456Y296D03*
X1259Y197D03*
X1259Y99D03*
X1259Y394D03*
X1259Y493D03*
G54D14*
X1456Y99D03*
X1554Y99D03*
X1554Y493D03*
X1456Y493D03*
X1259Y296D03*
G54D11*
X698Y1596D03*
X1098Y1596D03*
X698Y1096D03*
X1098Y1096D03*
X698Y596D03*
X1098Y596D03*
X698Y96D03*
X1098Y96D03*
G54D15*
X98Y1896D03*
X98Y96D03*
G54D16*
X198Y1096D03*
G54D17*
X569Y1567D03*
X569Y1665D03*
X569Y1488D03*
X569Y1390D03*
G04 End of Mask1*
M02*